<svg xmlns="http://www.w3.org/2000/svg" xmlns:xlink="http://www.w3.org/1999/xlink" width="672" height="672" viewBox="0 0 672 672">
    <defs>
        <path id="qzyy78pptc" d="M0 0.067L216.92 0.067 216.92 227 0 227z"/>
        <path id="l7l39qy4ee" d="M0 520L486 520 486 0 0 0z"/>
        <circle id="ybesczsqla" cx="336" cy="336" r="336"/>
    </defs>
    <g fill="none" fill-rule="evenodd">
        <g>
            <g transform="translate(-384.000000, -209.000000) translate(384.000000, 209.000000)">
                <mask id="gaqp89z7nb" fill="#fff">
                    <use xlink:href="#ybesczsqla"/>
                </mask>
                <use fill="#F9F9F9" xlink:href="#ybesczsqla"/>
                <circle cx="336" cy="336" r="202" fill="#09213D" mask="url(#gaqp89z7nb)" opacity=".05"/>
                <g mask="url(#gaqp89z7nb)">
                    <g transform="translate(310.000000, 367.000000) rotate(-270.000000) translate(-310.000000, -367.000000) translate(67.000000, 107.000000)">
                        <g transform="translate(0.000000, 293.000000)">
                            <mask id="qlkut4xsnd" fill="#fff">
                                <use xlink:href="#qzyy78pptc"/>
                            </mask>
                            <path fill="#2C447C" d="M216.92.067v101.682c0 17.576-14.25 31.876-31.763 31.876H31.763c-13.022 0-23.614 10.63-23.614 23.697V227H0v-69.678c0-17.576 14.248-31.875 31.763-31.875h153.394c13.018 0 23.611-10.632 23.611-23.698V.067h8.152z" mask="url(#qlkut4xsnd)"/>
                        </g>
                        <path fill="#2C3871" d="M226 319v16.058c0 3.835-3.205 6.942-7.156 6.942h-12.69c-2.181 0-4.134-.947-5.444-2.438v-.002c-1.066-1.211-1.71-2.783-1.71-4.502V319h27z"/>
                        <path fill="#4656A2" d="M241 280v32.822c0 5.068-4.05 9.178-9.045 9.178h-35.912c-4.994 0-9.043-4.11-9.043-9.178V280h54z"/>
                        <path fill="#38478C" d="M182.691 274.5h60.618c.658 0 1.191.448 1.191 1v4c0 .552-.533 1-1.191 1h-60.618c-.658 0-1.191-.448-1.191-1v-4c0-.552.533-1 1.191-1"/>
                        <path fill="#232851" d="M205.5 272.5h-10v-22.331c0-2.579 2.239-4.669 5-4.669s5 2.09 5 4.669V272.5zM231.5 272.5h-10v-22.331c0-2.579 2.239-4.669 5-4.669s5 2.09 5 4.669V272.5z"/>
                        <path fill="#38478C" d="M241 280v32.822c0 5.068-4.05 9.178-9.045 9.178h-35.912c-4.994 0-9.043-4.11-9.043-9.178C225.776 310.088 229.338 280 229.338 280H241z"/>
                        <mask id="y5zdvc714f" fill="#fff">
                            <use xlink:href="#l7l39qy4ee"/>
                        </mask>
                        <path fill="#2C3871" d="M187 283L241 283 241 281 187 281zM241 294v18.864c0 5.045-4.02 9.136-8.978 9.136H207c25.268 0 34-28 34-28" mask="url(#y5zdvc714f)"/>
                        <path fill="#232851" d="M199 324L226 324 226 323 199 323z" mask="url(#y5zdvc714f)"/>
                        <path fill="#15172D" d="M195.5 272.5L205.5 272.5 205.5 269.5 195.5 269.5zM221.5 272.5L231.5 272.5 231.5 269.5 221.5 269.5z" mask="url(#y5zdvc714f)"/>
                        <path fill="#232851" d="M226.5 321.5v12.839c0 3.956-3.168 7.161-7.074 7.161h-12.544c-2.156 0-4.086-.977-5.382-2.515v-.002c19.552 2.428 22.538-17.483 22.538-17.483h2.462z" mask="url(#y5zdvc714f)"/>
                        <path fill="#2C447C" d="M485.5-.5v8.217H240.33c-13.049 0-23.662 10.68-23.662 23.81V139.5H208.5V31.527C208.5 13.867 222.78-.5 240.33-.5H485.5z" mask="url(#y5zdvc714f)"/>
                        <path fill="#2C3871" d="M226 130v-16.058c0-3.835-3.205-6.942-7.156-6.942h-12.69c-2.181 0-4.134.947-5.444 2.438v.002c-1.066 1.211-1.71 2.783-1.71 4.502V130h27z" mask="url(#y5zdvc714f)"/>
                        <path fill="#4656A2" d="M241 168v-32.822c0-5.068-4.05-9.178-9.045-9.178h-35.912c-4.994 0-9.043 4.11-9.043 9.178V168h54z" mask="url(#y5zdvc714f)"/>
                        <path fill="#38478C" d="M182.691 174.5h60.618c.658 0 1.191-.448 1.191-1v-4c0-.552-.533-1-1.191-1h-60.618c-.658 0-1.191.448-1.191 1v4c0 .552.533 1 1.191 1M241 168v-32.822c0-5.068-4.05-9.178-9.045-9.178h-35.912c-4.994 0-9.043 4.11-9.043 9.178C225.776 137.912 229.338 168 229.338 168H241z" mask="url(#y5zdvc714f)"/>
                        <path fill="#2C3871" d="M187 167L241 167 241 165 187 165zM241 154v-18.864c0-5.045-4.02-9.136-8.978-9.136H207c25.268 0 34 28 34 28" mask="url(#y5zdvc714f)"/>
                        <path fill="#232851" d="M199 126L226 126 226 125 199 125z" mask="url(#y5zdvc714f)"/>
                        <path fill="#232851" d="M226.5 126.5v-12.839c0-3.956-3.168-7.161-7.074-7.161h-12.544c-2.156 0-4.086.977-5.382 2.515v.002c19.552-2.428 22.538 17.483 22.538 17.483h2.462z" mask="url(#y5zdvc714f)"/>
                        <path fill="#4656A2" d="M142.233 203.5h-16.466c-1.252 0-2.267-.895-2.267-2s1.015-2 2.267-2h16.466c1.252 0 2.267.895 2.267 2s-1.015 2-2.267 2M163.5 182.5c-1.105 0-2-1.015-2-2.267v-16.466c0-1.252.895-2.267 2-2.267s2 1.015 2 2.267v16.466c0 1.252-.895 2.267-2 2.267M147.711 189c-.586 0-1.171-.224-1.618-.67l-11.422-11.423c-.895-.893-.895-2.343 0-3.237.893-.893 2.342-.893 3.236 0l11.422 11.423c.895.894.895 2.343 0 3.237-.446.446-1.032.67-1.618.67M284.767 255.5h16.466c1.252 0 2.267.895 2.267 2s-1.015 2-2.267 2h-16.466c-1.252 0-2.267-.895-2.267-2s1.015-2 2.267-2M263.5 277.5c1.105 0 2 1.015 2 2.267v16.466c0 1.252-.895 2.267-2 2.267s-2-1.015-2-2.267v-16.466c0-1.252.895-2.267 2-2.267M278.289 271c.586 0 1.171.224 1.618.67l11.423 11.423c.893.893.893 2.343 0 3.237-.894.893-2.344.893-3.237 0l-11.423-11.423c-.893-.894-.894-2.343 0-3.237.447-.446 1.033-.67 1.619-.67" mask="url(#y5zdvc714f)"/>
                    </g>
                </g>
            </g>
        </g>
    </g>
</svg>
