<?xml version="1.0" standalone="no"?>
<!DOCTYPE svg PUBLIC "-//W3C//DTD SVG 20010904//EN"
 "http://www.w3.org/TR/2001/REC-SVG-20010904/DTD/svg10.dtd">
<svg version="1.0" xmlns="http://www.w3.org/2000/svg"
 width="800.000000pt" height="600.000000pt" viewBox="0 0 800.000000 600.000000"
 preserveAspectRatio="xMidYMid meet">

<g transform="translate(0.000000,600.000000) scale(0.100000,-0.100000)"
fill="#000000" stroke="none">
<path d="M4025 5426 c-180 -30 -336 -110 -460 -236 -41 -41 -83 -87 -95 -102
-41 -53 -100 -163 -120 -224 -21 -61 -22 -63 -63 -69 -127 -19 -226 -77 -309
-180 -67 -82 -90 -148 -96 -267 -7 -159 39 -273 151 -373 69 -63 122 -92 200
-111 l67 -17 0 -171 0 -171 -41 -135 c-61 -203 -102 -308 -194 -495 -294 -601
-729 -974 -1345 -1156 -95 -28 -151 -80 -170 -157 -29 -124 69 -252 194 -252
114 0 514 159 734 292 224 135 481 362 630 556 40 52 72 91 72 88 0 -17 -70
-176 -121 -278 -175 -343 -471 -679 -836 -950 -97 -72 -118 -99 -129 -166 -12
-74 51 -171 125 -192 86 -24 109 -14 289 123 7 5 4 -9 -8 -34 -65 -145 50
-302 211 -287 64 7 86 23 187 144 308 366 684 920 853 1256 22 44 42 78 44 76
6 -6 -59 -252 -90 -338 -14 -41 -60 -142 -100 -225 -109 -222 -233 -401 -396
-570 -92 -96 -109 -127 -109 -198 0 -116 112 -200 223 -168 93 27 378 358 523
607 232 400 344 822 361 1362 5 164 9 212 19 212 7 0 16 -15 19 -32 2 -18 17
-105 31 -193 15 -88 44 -230 66 -315 44 -170 45 -183 22 -350 -47 -356 -171
-753 -318 -1022 -46 -83 -42 -156 11 -219 28 -33 94 -68 128 -69 38 0 94 21
124 46 68 57 241 454 316 728 l16 59 62 -109 c106 -186 223 -351 366 -513 99
-112 130 -131 211 -131 57 0 73 4 111 30 60 39 92 98 93 169 0 68 -13 93 -95
186 -273 309 -481 702 -614 1160 -22 77 -25 106 -25 254 -1 150 -4 210 -26
446 -9 94 9 73 25 -30 90 -572 429 -1200 932 -1722 95 -99 133 -119 201 -110
54 7 113 51 138 101 41 85 21 147 -78 251 -389 406 -644 829 -780 1290 -16 55
-32 115 -35 133 l-7 33 58 -51 c88 -80 225 -165 320 -201 82 -31 96 -33 248
-37 140 -3 173 -1 245 17 292 74 600 332 924 776 101 138 115 166 115 232 0
132 -135 232 -263 193 -53 -16 -89 -53 -217 -230 -189 -263 -419 -470 -605
-546 -59 -25 -84 -29 -160 -29 -81 0 -97 3 -159 33 -186 88 -337 245 -505 527
l-71 119 0 177 0 176 58 13 c171 38 323 186 361 351 15 62 13 175 -3 235 -47
176 -197 314 -376 344 l-67 11 -13 42 c-32 108 -115 239 -216 342 -111 113
-237 186 -388 225 -103 26 -276 34 -381 16z m-534 -798 c134 -63 215 -211 190
-350 -14 -82 -43 -138 -99 -192 -75 -73 -120 -91 -232 -91 -81 0 -102 4 -140
24 -110 58 -171 140 -190 252 -29 167 80 337 245 380 57 15 167 4 226 -23z
m1662 -2 c61 -29 124 -92 159 -158 20 -37 23 -58 23 -143 0 -89 -3 -106 -27
-150 -30 -58 -97 -123 -160 -157 -36 -19 -58 -23 -138 -23 -80 0 -103 4 -143
24 -67 33 -134 101 -165 169 -38 81 -38 193 -1 272 44 92 132 167 224 191 60
16 170 4 228 -25z"/>
<path d="M3249 4530 c-79 -41 -123 -123 -117 -211 8 -112 100 -199 210 -199
68 0 110 16 154 57 50 47 68 90 69 160 0 34 -4 66 -10 71 -6 7 -41 -2 -95 -23
-143 -54 -136 -59 -75 52 61 112 62 111 -40 112 -40 0 -72 -6 -96 -19z"/>
<path d="M4915 4536 c-16 -8 -44 -29 -62 -47 -135 -142 -41 -369 152 -369 127
0 230 110 219 233 -6 69 -8 69 -123 26 -57 -21 -106 -39 -108 -39 -4 0 60 121
91 173 8 13 7 20 -4 27 -22 14 -130 11 -165 -4z"/>
</g>
</svg>
